<mxfile host="Electron" modified="2020-04-18T11:28:41.303Z" agent="Mozilla/5.0 (X11; Linux x86_64) AppleWebKit/537.36 (KHTML, like Gecko) draw.io/12.3.2 Chrome/78.0.3904.113 Electron/7.1.2 Safari/537.36" etag="O8QAKviNRdAZsvoGtIiw" version="12.3.2" type="device" pages="1">
  <diagram id="Uy_7JdkvfRgahT9eYUI6" name="Page-1">
    <mxGraphModel dx="980" dy="605" grid="1" gridSize="10" guides="0" tooltips="1" connect="1" arrows="1" fold="1" page="1" pageScale="1" pageWidth="827" pageHeight="1169" math="0" shadow="0">
      <root>
        <mxCell id="0"/>
        <mxCell id="1" parent="0"/>
        <mxCell id="vTKEXMpacIElkthdLyh9-1" value="&lt;b&gt;Main Component 1&lt;/b&gt;" style="rounded=0;whiteSpace=wrap;html=1;strokeWidth=4;fillColor=#dae8fc;strokeColor=#6c8ebf;" parent="1" vertex="1">
          <mxGeometry x="80" y="100" width="220" height="180" as="geometry"/>
        </mxCell>
        <mxCell id="vTKEXMpacIElkthdLyh9-2" value="&lt;b&gt;Main Component 2&lt;/b&gt;" style="rounded=0;whiteSpace=wrap;html=1;strokeWidth=4;fillColor=#d5e8d4;strokeColor=#82b366;" parent="1" vertex="1">
          <mxGeometry x="80" y="280" width="100" height="60" as="geometry"/>
        </mxCell>
        <mxCell id="vTKEXMpacIElkthdLyh9-3" value="&lt;b&gt;Main Component 3&lt;/b&gt;" style="rounded=0;whiteSpace=wrap;html=1;strokeWidth=4;fillColor=#ffe6cc;strokeColor=#d79b00;" parent="1" vertex="1">
          <mxGeometry x="180" y="280" width="120" height="60" as="geometry"/>
        </mxCell>
        <mxCell id="cHjcFTXYRNoWwvbirR72-1" value="&lt;b&gt;Main Component 4&lt;/b&gt;" style="rounded=0;whiteSpace=wrap;html=1;strokeWidth=4;fillColor=#fff2cc;strokeColor=#d6b656;" parent="1" vertex="1">
          <mxGeometry x="80" y="340" width="220" height="60" as="geometry"/>
        </mxCell>
        <mxCell id="cHjcFTXYRNoWwvbirR72-2" value="Component 1-1" style="rounded=0;whiteSpace=wrap;html=1;strokeWidth=3;fillColor=#dae8fc;strokeColor=#6c8ebf;" parent="1" vertex="1">
          <mxGeometry x="80" y="240" width="120" height="40" as="geometry"/>
        </mxCell>
        <mxCell id="cHjcFTXYRNoWwvbirR72-3" value="Selectable Component 1-2" style="rounded=0;whiteSpace=wrap;html=1;strokeWidth=3;fillColor=#dae8fc;strokeColor=#6c8ebf;" parent="1" vertex="1">
          <mxGeometry x="100" y="130" width="70" height="50" as="geometry"/>
        </mxCell>
        <mxCell id="cHjcFTXYRNoWwvbirR72-4" value="Main Component 1&#39;s&lt;br&gt;Attributions" style="rounded=1;whiteSpace=wrap;html=1;strokeWidth=4;fillColor=#dae8fc;strokeColor=#6c8ebf;" parent="1" vertex="1">
          <mxGeometry x="190" y="130" width="90" height="50" as="geometry"/>
        </mxCell>
        <mxCell id="cHjcFTXYRNoWwvbirR72-5" value="&lt;font color=&quot;#999999&quot;&gt;/// 架构的主部件的边用4pt的粗细&lt;br&gt;///子部件边不会比父粗&lt;/font&gt;" style="text;html=1;align=left;verticalAlign=middle;resizable=0;points=[];;autosize=1;" parent="1" vertex="1">
          <mxGeometry x="80" y="70" width="190" height="30" as="geometry"/>
        </mxCell>
        <mxCell id="cHjcFTXYRNoWwvbirR72-6" value="&lt;font color=&quot;#999999&quot;&gt;/// 可选的部件&lt;br&gt;/// 不和父部件贴边&lt;/font&gt;" style="text;html=1;align=left;verticalAlign=middle;resizable=0;points=[];;autosize=1;" parent="1" vertex="1">
          <mxGeometry x="90" y="100" width="110" height="30" as="geometry"/>
        </mxCell>
        <mxCell id="cHjcFTXYRNoWwvbirR72-7" value="&lt;font color=&quot;#999999&quot;&gt;/// 属性不贴边&lt;br&gt;&lt;/font&gt;" style="text;html=1;align=left;verticalAlign=middle;resizable=0;points=[];;autosize=1;" parent="1" vertex="1">
          <mxGeometry x="200" y="110" width="90" height="20" as="geometry"/>
        </mxCell>
        <mxCell id="cHjcFTXYRNoWwvbirR72-9" value="&lt;font color=&quot;#999999&quot;&gt;/// 子部件和父部件贴边&lt;br&gt;&lt;/font&gt;" style="text;html=1;align=left;verticalAlign=middle;resizable=0;points=[];;autosize=1;" parent="1" vertex="1">
          <mxGeometry x="80" y="220" width="140" height="20" as="geometry"/>
        </mxCell>
        <mxCell id="P9JpTHfYEvKDqPg2yRsP-2" value="&lt;font color=&quot;#999999&quot;&gt;/// 因是“&lt;/font&gt;&lt;span style=&quot;color: rgb(153 , 153 , 153)&quot;&gt;堆”出来的所以&lt;/span&gt;&lt;font color=&quot;#999999&quot;&gt;&lt;br&gt;/// 空白表示不使用&lt;br&gt;/// Component 1-1&lt;br&gt;&lt;/font&gt;" style="text;html=1;align=left;verticalAlign=middle;resizable=0;points=[];;autosize=1;" parent="1" vertex="1">
          <mxGeometry x="200" y="230" width="130" height="50" as="geometry"/>
        </mxCell>
      </root>
    </mxGraphModel>
  </diagram>
</mxfile>
